<svg width="920" height="500" viewBox="0 0 920 500" fill="none" xmlns="http://www.w3.org/2000/svg">
  <rect width="920" height="500" rx="28" fill="#F7FAFB"/>
  <text x="58" y="68" fill="#233133" font-family="Iowan Old Style, Georgia, serif" font-size="34">A frame-aware perception problem</text>

  <line x1="62" y1="408" x2="858" y2="408" stroke="#A9B7BA" stroke-width="2"/>
  <text x="687" y="446" fill="#68777A" font-family="Avenir Next, Segoe UI, sans-serif" font-size="19">world / table {W}</text>

  <rect x="92" y="344" width="92" height="64" rx="10" fill="#E4ECEE" stroke="#233133" stroke-width="3"/>
  <circle cx="138" cy="344" r="9" fill="#233133"/>
  <line x1="138" y1="344" x2="242" y2="290" stroke="#233133" stroke-width="11" stroke-linecap="round"/>
  <line x1="242" y1="290" x2="354" y2="262" stroke="#233133" stroke-width="11" stroke-linecap="round"/>
  <line x1="354" y1="262" x2="452" y2="302" stroke="#233133" stroke-width="11" stroke-linecap="round"/>
  <circle cx="242" cy="290" r="12" fill="#F7FAFB" stroke="#233133" stroke-width="5"/>
  <circle cx="354" cy="262" r="12" fill="#F7FAFB" stroke="#233133" stroke-width="5"/>
  <circle cx="452" cy="302" r="12" fill="#233133"/>
  <text x="470" y="309" fill="#233133" font-family="Avenir Next, Segoe UI, sans-serif" font-size="20">end-effector</text>

  <circle cx="138" cy="344" r="6" fill="#0F656C"/>
  <line x1="138" y1="344" x2="205" y2="344" stroke="#0F656C" stroke-width="4"/>
  <polygon points="213,344 197,336 197,352" fill="#0F656C"/>
  <line x1="138" y1="344" x2="138" y2="277" stroke="#0F656C" stroke-width="4"/>
  <polygon points="138,269 130,285 146,285" fill="#0F656C"/>
  <text x="216" y="350" fill="#0F656C" font-family="Avenir Next, Segoe UI, sans-serif" font-size="18">x<tspan baseline-shift="sub" font-size="13">B</tspan></text>
  <text x="147" y="272" fill="#0F656C" font-family="Avenir Next, Segoe UI, sans-serif" font-size="18">y<tspan baseline-shift="sub" font-size="13">B</tspan></text>
  <text x="84" y="455" fill="#233133" font-family="Avenir Next, Segoe UI, sans-serif" font-size="21">robot base {B}</text>

  <g transform="translate(408 118)">
    <rect x="0" y="0" width="76" height="52" rx="10" fill="#DDEEF1" stroke="#0F656C" stroke-width="3"/>
    <circle cx="38" cy="26" r="10" fill="#0F656C"/>
    <path d="M76 14L96 4V48L76 38" fill="#DDEEF1" stroke="#0F656C" stroke-width="3" stroke-linejoin="round"/>
    <circle cx="38" cy="26" r="5" fill="#F7FAFB"/>
  </g>
  <line x1="446" y1="144" x2="504" y2="144" stroke="#0F656C" stroke-width="4"/>
  <polygon points="512,144 496,136 496,152" fill="#0F656C"/>
  <line x1="446" y1="144" x2="446" y2="91" stroke="#0F656C" stroke-width="4"/>
  <polygon points="446,83 438,99 454,99" fill="#0F656C"/>
  <text x="517" y="150" fill="#0F656C" font-family="Avenir Next, Segoe UI, sans-serif" font-size="18">x<tspan baseline-shift="sub" font-size="13">C</tspan></text>
  <text x="455" y="84" fill="#0F656C" font-family="Avenir Next, Segoe UI, sans-serif" font-size="18">y<tspan baseline-shift="sub" font-size="13">C</tspan></text>
  <text x="379" y="203" fill="#233133" font-family="Avenir Next, Segoe UI, sans-serif" font-size="21">camera frame {C}</text>

  <path d="M495 164L704 366" stroke="#A9B7BA" stroke-width="3" stroke-dasharray="9 9"/>
  <circle cx="720" cy="381" r="18" fill="#C96C35"/>
  <path d="M704 375C708 354 732 354 736 375" stroke="#C96C35" stroke-width="7" stroke-linecap="round"/>
  <text x="746" y="389" fill="#233133" font-family="Avenir Next, Segoe UI, sans-serif" font-size="21">cup</text>
  <text x="590" y="251" fill="#68777A" font-family="Avenir Next, Segoe UI, sans-serif" font-size="20">observation p<tspan baseline-shift="sub" font-size="14">C</tspan></text>

  <path d="M177 319C226 213 316 160 405 146" stroke="#0F656C" stroke-width="3" stroke-dasharray="10 8"/>
  <text x="272" y="184" fill="#0F656C" font-family="Iowan Old Style, Georgia, serif" font-size="27">T<tspan baseline-shift="sub" font-size="18">BC</tspan></text>
</svg>
